/* XPM */
static char * rcomplete_xpm[] = {
"24 24 413 2",
"  	c None",
". 	c #FEFEFE",
"+ 	c #F8F8F8",
"@ 	c #FAFAFA",
"# 	c #FBFBFB",
"$ 	c #F9F9F9",
"% 	c #FBFAF8",
"& 	c #E9E5E0",
"* 	c #EDF2F9",
"= 	c #FFFFFE",
"- 	c #FCFCFB",
"; 	c #FFFFFF",
"> 	c #858687",
", 	c #F7F7F5",
"' 	c #A09594",
") 	c #B0AEAA",
"! 	c #B9BABD",
"~ 	c #A19C94",
"{ 	c #ABAAAC",
"] 	c #9FA2A3",
"^ 	c #DBE4F3",
"/ 	c #FEF3E4",
"( 	c #9DA2AD",
"_ 	c #DCD4CE",
": 	c #A7A6A8",
"< 	c #C7C6C3",
"[ 	c #515C69",
"} 	c #FBFDF9",
"| 	c #D4D2D0",
"1 	c #C8C9C2",
"2 	c #C9CAC4",
"3 	c #AEB0A6",
"4 	c #B6B9BB",
"5 	c #CDD3CF",
"6 	c #D9E1E7",
"7 	c #F6EFE2",
"8 	c #C2CAD0",
"9 	c #E9E9E2",
"0 	c #C1C5C1",
"a 	c #C1C5C6",
"b 	c #727978",
"c 	c #FEFFFE",
"d 	c #FFEBFF",
"e 	c #FFD9FF",
"f 	c #FED6FD",
"g 	c #FED7FE",
"h 	c #FBD3FA",
"i 	c #FFD8FF",
"j 	c #F6CEF2",
"k 	c #F5D1F9",
"l 	c #FFDAFF",
"m 	c #E7C0DC",
"n 	c #EFCFF8",
"o 	c #FFD7FF",
"p 	c #FFDEFF",
"q 	c #CAA1C3",
"r 	c #FCDAFF",
"s 	c #F2CCEC",
"t 	c #EDCEF3",
"u 	c #FFDCFF",
"v 	c #FED8FE",
"w 	c #F9D6F7",
"x 	c #BC84B5",
"y 	c #C490C3",
"z 	c #DCA1DC",
"A 	c #B484B4",
"B 	c #E5A8E1",
"C 	c #A678A0",
"D 	c #E3ADF9",
"E 	c #FFBAF8",
"F 	c #836083",
"G 	c #D39BD4",
"H 	c #A87BA4",
"I 	c #CA94CB",
"J 	c #D28DB6",
"K 	c #8C72A8",
"L 	c #E5ADF0",
"M 	c #CF98CA",
"N 	c #C990C1",
"O 	c #E2ABEF",
"P 	c #FFBBFF",
"Q 	c #B379AB",
"R 	c #B886B2",
"S 	c #B384B5",
"T 	c #AB7997",
"U 	c #84608C",
"V 	c #CC9AD0",
"W 	c #DBA6EF",
"X 	c #FFBEFF",
"Y 	c #B484B7",
"Z 	c #FAB7F9",
"` 	c #C38BB6",
" .	c #C289AC",
"..	c #986991",
"+.	c #C095CF",
"@.	c #AA85C4",
"#.	c #BD85AC",
"$.	c #AE82AF",
"%.	c #CA9BDC",
"&.	c #FDD9FC",
"*.	c #EFABEE",
"=.	c #E4A5DF",
"-.	c #E1A3DE",
";.	c #D099CF",
">.	c #E5A8E7",
",.	c #D39BD6",
"'.	c #E1A5E6",
").	c #FAB7FA",
"!.	c #E9ABEA",
"~.	c #FBB8FB",
"{.	c #E0A2DA",
"].	c #D99FD7",
"^.	c #DFA2DE",
"/.	c #C490C7",
"(.	c #F4B6FB",
"_.	c #E8A7E2",
":.	c #D59CD4",
"<.	c #EAAEF1",
"[.	c #FFBCFF",
"}.	c #FFBDFF",
"|.	c #FDD9FD",
"1.	c #EDAAEB",
"2.	c #ECAEF0",
"3.	c #FEB9FB",
"4.	c #E4A8E9",
"5.	c #FFBFFF",
"6.	c #DF9ED0",
"7.	c #CA96D2",
"8.	c #E7AAE7",
"9.	c #D19BD8",
"0.	c #F0AEEA",
"a.	c #D49CD5",
"b.	c #EBAEF0",
"c.	c #FBB7F5",
"d.	c #C691C4",
"e.	c #F0B0F1",
"f.	c #E6AAEB",
"g.	c #EFAFF0",
"h.	c #FFBAFB",
"i.	c #E1A6E4",
"j.	c #EFABE1",
"k.	c #D39DD9",
"l.	c #D59EDB",
"m.	c #F5B1F0",
"n.	c #F8D5F6",
"o.	c #AA73A0",
"p.	c #B280A7",
"q.	c #B487BC",
"r.	c #A47393",
"s.	c #9C71A0",
"t.	c #AC7AA0",
"u.	c #A685C5",
"v.	c #F8BAFF",
"w.	c #AF7EB0",
"x.	c #F5B3F2",
"y.	c #C18BB8",
"z.	c #C186AB",
"A.	c #BB92D7",
"B.	c #AA7CA5",
"C.	c #F3B2F4",
"D.	c #BE84B0",
"E.	c #CD96C3",
"F.	c #A7749F",
"G.	c #B385B4",
"H.	c #A779A6",
"I.	c #AC85C3",
"J.	c #BB89BF",
"K.	c #F8B5F6",
"L.	c #FAD7F9",
"M.	c #CC8FC7",
"N.	c #C790C1",
"O.	c #C08ABB",
"P.	c #AD7DA2",
"Q.	c #B081B5",
"R.	c #AD7FAB",
"S.	c #AB7FB5",
"T.	c #D59CD7",
"U.	c #976D96",
"V.	c #E4AAEC",
"W.	c #BA83AD",
"X.	c #BA85AC",
"Y.	c #C197DC",
"Z.	c #B07DA4",
"`.	c #D89EDB",
" +	c #B07EA9",
".+	c #AE7EAA",
"++	c #BD85B6",
"@+	c #D19DD2",
"#+	c #BD8AC1",
"$+	c #E2A9EF",
"%+	c #AC7BA7",
"&+	c #E2A9EB",
"*+	c #F2DCF2",
"=+	c #EABDEA",
"-+	c #EBC0EC",
";+	c #EDC1EE",
">+	c #ECC0EC",
",+	c #EABDE9",
"'+	c #E9BEEA",
")+	c #E9BEE9",
"!+	c #EEC2EE",
"~+	c #E9BDE8",
"{+	c #ECC0ED",
"]+	c #EBBFE9",
"^+	c #EBBFEB",
"/+	c #EBBFEA",
"(+	c #E8BDE8",
"_+	c #D8DAD7",
":+	c #989894",
"<+	c #999C96",
"[+	c #A0A6A4",
"}+	c #94948F",
"|+	c #A2A5A0",
"1+	c #91938C",
"2+	c #A6B1B6",
"3+	c #BBBBB3",
"4+	c #9CA2A1",
"5+	c #AEAFA8",
"6+	c #9A9F9C",
"7+	c #ACAEA8",
"8+	c #A5AEAF",
"9+	c #BABEBA",
"0+	c #D7D6D4",
"a+	c #756C6E",
"b+	c #797773",
"c+	c #7D7B7A",
"d+	c #615D56",
"e+	c #68696D",
"f+	c #707374",
"g+	c #949BA6",
"h+	c #B8ACA0",
"i+	c #636971",
"j+	c #9D9893",
"k+	c #6C6C6E",
"l+	c #6F7072",
"m+	c #9AA1A6",
"n+	c #BEBEBE",
"o+	c #DADCD9",
"p+	c #B0B3B0",
"q+	c #B3B7B3",
"r+	c #B2B6B1",
"s+	c #B0B4AF",
"t+	c #AEB2AF",
"u+	c #B1B6B2",
"v+	c #B3B8B5",
"w+	c #B8BBB5",
"x+	c #AEB3B0",
"y+	c #B6B9B5",
"z+	c #B0B4B0",
"A+	c #ADB1AE",
"B+	c #B7BCB8",
"C+	c #BDC0BD",
"D+	c #B9BEB9",
"E+	c #FEB7FE",
"F+	c #FEBAFE",
"G+	c #FFBAFF",
"H+	c #FEB9FC",
"I+	c #EEABE5",
"J+	c #EEB1F9",
"K+	c #FDB7F7",
"L+	c #C793CC",
"M+	c #F7D5F5",
"N+	c #A06B94",
"O+	c #B281AC",
"P+	c #BD8BC2",
"Q+	c #A57598",
"R+	c #B282B2",
"S+	c #9D74A0",
"T+	c #DDA9F5",
"U+	c #FFB4E9",
"V+	c #9D76A9",
"W+	c #DB9BCD",
"X+	c #A87AAA",
"Y+	c #C791C2",
"Z+	c #C094D5",
"`+	c #C282A4",
" @	c #D3A7F6",
".@	c #FBD7F9",
"+@	c #CE90CA",
"@@	c #C38DBD",
"#@	c #C38CBD",
"$@	c #A87A9F",
"%@	c #AC7EB1",
"&@	c #CB97CF",
"*@	c #D6A1E6",
"=@	c #F5AADD",
"-@	c #BD90D1",
";@	c #E9A7E0",
">@	c #BD8ABD",
",@	c #AF82B6",
"'@	c #E7A8E0",
")@	c #A67CB0",
"!@	c #FDBBFF",
"~@	c #FCB8FB",
"{@	c #FDB9FC",
"]@	c #F7B5F6",
"^@	c #FEBBFF",
"/@	c #F3B1EF",
"(@	c #F4B3F8",
"_@	c #FEBCFF",
":@	c #F7B2EC",
"<@	c #F1B3F8",
"[@	c #F7B4F5",
"}@	c #E8ABEA",
"|@	c #F9B6F8",
"1@	c #E3A6E2",
"2@	c #FAD6F8",
"3@	c #C188BB",
"4@	c #C992C7",
"5@	c #E0A3E0",
"6@	c #BA87BA",
"7@	c #EAABE5",
"8@	c #AA7AA4",
"9@	c #E4ADF9",
"0@	c #FFBAF9",
"a@	c #AD7692",
"b@	c #BC91D7",
"c@	c #CD96CE",
"d@	c #C393CB",
"e@	c #F7B3ED",
"f@	c #B486BD",
"g@	c #DD9DCF",
"h@	c #C08FC6",
"i@	c #F6B6FB",
"j@	c #F9D6F6",
"k@	c #B177A8",
"l@	c #B786B1",
"m@	c #AA7996",
"n@	c #825F8A",
"o@	c #E0ABF7",
"p@	c #D38EB8",
"q@	c #D199C2",
"r@	c #83618E",
"s@	c #B891CC",
"t@	c #B78ABF",
"u@	c #F7B5F7",
"v@	c #AF7DAC",
"w@	c #BC85B2",
"x@	c #AA80B1",
"y@	c #E7A9E9",
"z@	c #FDD9FB",
"A@	c #EBA8EA",
"B@	c #DFA2D9",
"C@	c #DC9FD9",
"D@	c #C993C7",
"E@	c #E1A5E3",
"F@	c #CC96CF",
"G@	c #DAA0E1",
"H@	c #F9B3F0",
"I@	c #C28DBF",
"J@	c #E4A9E8",
"K@	c #D099D3",
"L@	c #E2A4DE",
"M@	c #E7A8E7",
"N@	c #C08CBF",
"O@	c #D9A1DD",
"P@	c #E4A8E6",
"Q@	c #F8B6FA",
"R@	c #FED9FD",
"S@	c #F1ADEF",
"T@	c #F0B1F4",
"U@	c #FFBAFD",
"V@	c #EBADEE",
"W@	c #E4A4DB",
"X@	c #F3B5FD",
"Y@	c #FFC0FF",
"Z@	c #ECA6D7",
"`@	c #E3ADF7",
" #	c #F7B3F2",
".#	c #DDA4E1",
"+#	c #FBB7F6",
"@#	c #DDA4E3",
"##	c #FCB8F9",
"$#	c #F0AFEE",
"%#	c #DB9FD7",
"&#	c #E9AFF4",
"*#	c #AE76A4",
"=#	c #B583AC",
"-#	c #BA8BC1",
";#	c #A77698",
">#	c #A578A8",
",#	c #B889B9",
"'#	c #E3AEFC",
")#	c #E59ECE",
"!#	c #BE86A8",
"~#	c #8F6CA0",
"{#	c #B087BB",
"]#	c #AC84B9",
"^#	c #F8B6F5",
"/#	c #AD7DAF",
"(#	c #C78CB8",
"_#	c #AD82B5",
":#	c #B880AA",
"<#	c #D9A7ED",
"[#	c #FAD7F8",
"}#	c #CA8DC5",
"|#	c #C68FBF",
"1#	c #BF89BA",
"2#	c #AC7DA1",
"3#	c #AE80B3",
"4#	c #B083B4",
"5#	c #C897DA",
"6#	c #E9A2D4",
"7#	c #A6789D",
"8#	c #B285BE",
"9#	c #BA8DC6",
"0#	c #C58FC2",
"a#	c #E2A4E2",
"b#	c #996E98",
"c#	c #BC8ABC",
"d#	c #BC89B6",
"e#	c #946B95",
"f#	c #DDA6EA",
". + @ # $ % & * = + - $ ; > ; ; ; ; ; ; ; ; ; ; ",
", ' ) ! ~ { ] ^ / ( _ : < [ ; ; ; ; ; ; ; ; ; ; ",
"} | 1 2 3 4 5 6 7 8 9 0 a b ; ; ; c ; ; ; ; ; ; ",
"d e f g h i j k l m n o p q r s t u e v i i i i ",
"w x y z A B C D E F G H I J K L M N O P P P P P ",
"w Q R S T U V W X Y Z `  ...+.@.#.$.%.P P P P P ",
"&.*.=.-.;.>.,.'.).!.~.{.].^./.(._.:.<.[.[.}.[.P ",
"|.1.2.3.4.5.6.7.8.9.0.a.b.c.d.e.f.g.h.i.j.k.l.m.",
"n.o.p.q.r.s.t.u.v.w.x.y.z.A.B.C.D.E.F.G.H.I.J.K.",
"L.M.N.O.P.Q.R.S.T.U.V.W.X.Y.Z.`. +.+++@+#+$+%+&+",
"*+=+-+-+;+>+,+'+)+!+~+{+-+]+-+)+-+>+^+)+/+(+>+(+",
"_+:+<+[+}+|+1+2+3+4+5+6+7+8+9+9+9+9+9+9+9+9+9+9+",
"0+a+b+c+d+e+f+g+h+i+j+k+l+m+n+n+n+n+n+n+n+n+n+n+",
"o+p+q+r+s+t+u+v+w+x+y+z+A+B+C+D+D+D+D+D+D+D+D+D+",
"l E+F+G+F+H+I+J+P F+G+F+P K+L+}.G+G+G+G+G+G+G+G+",
"M+N+O+P+Q+R+S+T+U+V+W+X+Y+Z+`+ @[.P P P P P P P ",
".@+@@@#@$@%@&@*@=@-@;@>@,@'@)@!@P P P P P P P P ",
"l P ~@{@]@^@/@(@_@:@<@[@}@|@1@^@X P F+P P P P P ",
"2@3@4@5@6@7@8@9@0@a@b@c@d@e@f@g@h@i@P P P P P P ",
"j@k@l@S m@n@V o@p@q@r@s@t@u@v@w@x@y@P P P P P P ",
"z@A@B@C@D@E@F@G@H@I@J@K@L@M@N@O@P@Q@P F+P P P P ",
"R@S@T@U@V@5.W@X@Y@Z@`@ #.#+#@###$#%#&#P P P P P ",
"j@*#=#-#;#>#,#'#)#!#~#{#]#^#/#(#_#:#<#P P P P P ",
"[#}#|#1#2#3#4#5#6#7#8#9#0#a#b#c#d#e#f#P P P P P "};
