/* XPM */
static char * rkill_xpm[] = {
"24 24 224 2",
"  	c None",
". 	c #FF0000",
"+ 	c #FD0707",
"@ 	c #E48C97",
"# 	c #D5DFED",
"$ 	c #D5DFE5",
"% 	c #D5DBE5",
"& 	c #D5DBED",
"* 	c #C5CFDD",
"= 	c #BDC7E5",
"- 	c #ADB7D5",
"; 	c #FB090A",
"> 	c #B88193",
", 	c #A0ACC4",
"' 	c #A8AEC8",
") 	c #B8C0D0",
"! 	c #B8C0D8",
"~ 	c #B4BED4",
"{ 	c #B8BED8",
"] 	c #B4BED8",
"^ 	c #B8C0D4",
"/ 	c #B0B8D4",
"( 	c #A8B0CC",
"_ 	c #9CA6C4",
": 	c #9CA8CC",
"< 	c #9CA6D0",
"[ 	c #AF6A7F",
"} 	c #FD0A0B",
"| 	c #DF444F",
"1 	c #FA0406",
"2 	c #9E6282",
"3 	c #9CA2CC",
"4 	c #9CA2BC",
"5 	c #7882A0",
"6 	c #707698",
"7 	c #707894",
"8 	c #70769C",
"9 	c #7880A0",
"0 	c #8088B4",
"a 	c #8892C0",
"b 	c #7C8AB8",
"c 	c #9D739D",
"d 	c #F60B0D",
"e 	c #ACB1CB",
"f 	c #CB3D54",
"g 	c #FC0405",
"h 	c #C9809C",
"i 	c #747A94",
"j 	c #707480",
"k 	c #6C6C7C",
"l 	c #686C78",
"m 	c #6C6C80",
"n 	c #707688",
"o 	c #7C809C",
"p 	c #747EA8",
"q 	c #8494C0",
"r 	c #A06F94",
"s 	c #F8080C",
"t 	c #D42830",
"u 	c #ACB2CC",
"v 	c #8492CC",
"w 	c #BF3D51",
"x 	c #FD0303",
"y 	c #8F3C49",
"z 	c #8D8B8D",
"A 	c #8D8B95",
"B 	c #8D8F95",
"C 	c #858795",
"D 	c #8088A8",
"E 	c #A06A89",
"F 	c #FA0608",
"G 	c #D93648",
"H 	c #62647E",
"I 	c #9D9BA5",
"J 	c #8892C8",
"K 	c #7484B0",
"L 	c #CA516A",
"M 	c #FE0101",
"N 	c #D26372",
"O 	c #FB0506",
"P 	c #D43D52",
"Q 	c #9DA3D6",
"R 	c #54566C",
"S 	c #989AA8",
"T 	c #8892C4",
"U 	c #7484B4",
"V 	c #98A4D4",
"W 	c #C5546E",
"X 	c #C4384B",
"Y 	c #909DD3",
"Z 	c #A0ACDC",
"` 	c #585A74",
" .	c #ACB0BC",
"..	c #7486B0",
"+.	c #98A2D4",
"@.	c #949ACC",
"#.	c #A53F51",
"$.	c #CD4A5A",
"%.	c #7886AC",
"&.	c #B0BCE0",
"*.	c #98A2C4",
"=.	c #4C5268",
"-.	c #C5C7CD",
";.	c #909AD0",
">.	c #8C96C8",
",.	c #8088A4",
"'.	c #EC5F62",
").	c #FF0101",
"!.	c #F92829",
"~.	c #DF636F",
"{.	c #8C94B0",
"].	c #C4CCE0",
"^.	c #5C6074",
"/.	c #6C7280",
"(.	c #8496C4",
"_.	c #7482AC",
":.	c #8C96CC",
"<.	c #8C96C4",
"[.	c #8492BC",
"}.	c #8C9ACC",
"|.	c #BF6F85",
"1.	c #FE0202",
"2.	c #AF4055",
"3.	c #949ABC",
"4.	c #C4CEDC",
"5.	c #848694",
"6.	c #242A34",
"7.	c #3C3A3C",
"8.	c #D4D2D4",
"9.	c #949ED4",
"0.	c #CCD2F4",
"a.	c #CCD2E4",
"b.	c #8C92AC",
"c.	c #B94658",
"d.	c #D2445C",
"e.	c #BCC5F3",
"f.	c #3C465C",
"g.	c #4C4E54",
"h.	c #ACAEB4",
"i.	c #94A6D4",
"j.	c #BCC2EC",
"k.	c #545E74",
"l.	c #9F1D1E",
"m.	c #BA2F3B",
"n.	c #FB0507",
"o.	c #D94154",
"p.	c #4D516B",
"q.	c #BCC2D4",
"r.	c #7486AC",
"s.	c #94A2D4",
"t.	c #949ECC",
"u.	c #B52D35",
"v.	c #B4BAC4",
"w.	c #854C69",
"x.	c #FA0709",
"y.	c #D2313B",
"z.	c #B5B7D1",
"A.	c #7C82AC",
"B.	c #94A1DB",
"C.	c #D34255",
"D.	c #ACAEBC",
"E.	c #936280",
"F.	c #F7090C",
"G.	c #D92C3A",
"H.	c #6F7798",
"I.	c #C4C6CC",
"J.	c #848EC4",
"K.	c #7585B3",
"L.	c #D63E51",
"M.	c #F90304",
"N.	c #64728C",
"O.	c #9C7291",
"P.	c #F50B0F",
"Q.	c #DD2934",
"R.	c #908DA6",
"S.	c #DCDEDC",
"T.	c #ACB2D4",
"U.	c #8690C1",
"V.	c #D22E3E",
"W.	c #FA070A",
"X.	c #844A57",
"Y.	c #747EA4",
"Z.	c #9979A3",
"`.	c #F30E13",
" +	c #DB1D27",
".+	c #9993A4",
"++	c #AEAEC7",
"@+	c #D92D3F",
"#+	c #F80A0E",
"$+	c #AB7B9F",
"%+	c #5C6674",
"&+	c #949AAC",
"*+	c #9680AE",
"=+	c #F21217",
"-+	c #DF1A22",
";+	c #CFC1C7",
">+	c #E8323B",
",+	c #F60C0F",
"'+	c #BC96B8",
")+	c #9CA6CC",
"!+	c #5C6274",
"~+	c #9CA6BC",
"{+	c #747EAC",
"]+	c #AF9CC8",
"^+	c #F2171B",
"/+	c #EA1E21",
"(+	c #F30D12",
"_+	c #A687A3",
":+	c #B4BEDC",
"<+	c #5C668C",
"[+	c #7C8AB4",
"}+	c #A4B2D4",
"|+	c #B4A3BE",
"1+	c #EC161B",
"2+	c #F71617",
"3+	c #886878",
"4+	c #6C727C",
"5+	c #646A84",
"6+	c #6C6E7C",
"7+	c #84868C",
"8+	c #BCBEC4",
"9+	c #747A8C",
"0+	c #796571",
"a+	c #E61518",
"                                                ",
"  . .                                       . . ",
"  . . + @ # $ % $ % $ & $ $ % % * = -     . . . ",
"    . . ; > , ' ) ! ~ { ] ^ / ( _ : < [ } . .   ",
"      | . 1 2 3 4 5 6 7 8 9 0 a b b c d . .     ",
"      e f . g h i j k l m n o p q r s . t       ",
"      u v w . x y z z z A B C D E F . G H I     ",
"      u J K L . M             N O . P Q R S     ",
"      u T U V W . .           . . X Y Z `  .    ",
"      u T ..+.@.#.. .       . . $.%.&.*.=.-.    ",
"      u T ..;.>.,.'.).. !.).. ~.{., ].^./.      ",
"      u (._.:.<.[.}.|.1.. . 2.3.4.5.6.7.8.      ",
"      u v _.9.0.a.b.c.. . . d.e.f.g.h.          ",
"      u <._.i.j.k.l.. M m.n.. o.p.q.            ",
"      u v r.s.t.u.. .   v.w.x.. y.z.            ",
"      u v A.B.C.. .       D.E.F.. G.H.I.        ",
"      u J.K.L.. M.        v.N.O.P.. Q.R.S.      ",
"      T.U.V.. W.X.          D.Y.Z.`..  +.+      ",
"      ++@+. #+$+%+            &+[.*+=+. -+;+    ",
"      >+. ,+'+)+!+            ~+{+(.]+^+. /+    ",
"    . . (+_+:+3.k.              <+[+}+|+1+. .   ",
"  . . 2+3+4+5+6+7+              8+9+6+6+0+a+. . ",
"  . .                                       . . ",
"                                                "};
