/* XPM */
static char * rstop_xpm[] = {
"24 24 253 2",
"  	c None",
". 	c #BF0000",
"+ 	c #C3C9CB",
"@ 	c #CCD2DC",
"# 	c #D4DCEC",
"$ 	c #CD9096",
"% 	c #C01010",
"& 	c #C11011",
"* 	c #C53C40",
"= 	c #C9686E",
"- 	c #C86366",
"; 	c #C43638",
"> 	c #C00B0C",
", 	c #BE181C",
"' 	c #B36A7B",
") 	c #ABB1D3",
"! 	c #9C93B5",
"~ 	c #A92A36",
"{ 	c #BF0001",
"] 	c #A93E4D",
"^ 	c #A08FAB",
"/ 	c #98A2C8",
"( 	c #98A0C4",
"_ 	c #98A0C8",
": 	c #949CC4",
"< 	c #848DBB",
"[ 	c #836D94",
"} 	c #A82B39",
"| 	c #B94A52",
"1 	c #D1C2CB",
"2 	c #ACA5BD",
"3 	c #B9191F",
"4 	c #BB090B",
"5 	c #B14F63",
"6 	c #ACB2D4",
"7 	c #788098",
"8 	c #505670",
"9 	c #484E68",
"0 	c #505674",
"a 	c #646C90",
"b 	c #848CB8",
"c 	c #8C9AC8",
"d 	c #8090C0",
"e 	c #925C7D",
"f 	c #B90C10",
"g 	c #B51618",
"h 	c #B93239",
"i 	c #AF202B",
"j 	c #BC070A",
"k 	c #BF0102",
"l 	c #915469",
"m 	c #6C6E7C",
"n 	c #8C8A8C",
"o 	c #8C8A90",
"p 	c #8C8C94",
"q 	c #888A94",
"r 	c #6C728C",
"s 	c #6C78A0",
"t 	c #8894C0",
"u 	c #8C96C8",
"v 	c #9088B8",
"w 	c #B4161E",
"x 	c #BC0B0E",
"y 	c #837EA9",
"z 	c #927192",
"A 	c #BE0608",
"B 	c #BE0202",
"C 	c #8C343B",
"D 	c #ABB1CB",
"E 	c #949EC0",
"F 	c #7C8AB8",
"G 	c #8894C8",
"H 	c #98A0D4",
"I 	c #85657F",
"J 	c #BD0303",
"K 	c #BE0404",
"L 	c #A76D87",
"M 	c #808ABC",
"N 	c #8492C4",
"O 	c #A07599",
"P 	c #BD0404",
"Q 	c #BE0101",
"R 	c #8B99C3",
"S 	c #8090BC",
"T 	c #8090C4",
"U 	c #94A0D8",
"V 	c #787EA8",
"W 	c #97404C",
"X 	c #BC1E23",
"Y 	c #7C8CBC",
"Z 	c #8896C4",
"` 	c #98A0D0",
" .	c #8D5974",
"..	c #9BA9D3",
"+.	c #8490C0",
"@.	c #9CAAD8",
"#.	c #8088A8",
"$.	c #90919F",
"%.	c #BF0F10",
"&.	c #B8424B",
"*.	c #9CA2C8",
"=.	c #808CB8",
"-.	c #8492C0",
";.	c #949CD0",
">.	c #8088B4",
",.	c #943C4F",
"'.	c #C00000",
").	c #DBDDF3",
"!.	c #B4B8D0",
"~.	c #8490AC",
"{.	c #A4B2CC",
"].	c #ACB4CC",
"^.	c #646C84",
"/.	c #3C465C",
"(.	c #B36B7B",
"_.	c #808EC0",
":.	c #8C96B8",
"<.	c #B4B8C4",
"[.	c #CF8D91",
"}.	c #C00202",
"|.	c #CFAAB4",
"1.	c #CCD0DC",
"2.	c #B8BCCC",
"3.	c #98A0BC",
"4.	c #A8B0C8",
"5.	c #C0C6D8",
"6.	c #747888",
"7.	c #646670",
"8.	c #9B9DA3",
"9.	c #ADA1B9",
"0.	c #98A4C8",
"a.	c #7C8CB8",
"b.	c #808CBC",
"c.	c #94A2CC",
"d.	c #A7667A",
"e.	c #BF0101",
"f.	c #BA090B",
"g.	c #7E6483",
"h.	c #8088AC",
"i.	c #A4AAB8",
"j.	c #545864",
"k.	c #303238",
"l.	c #888688",
"m.	c #D3D1D3",
"n.	c #98A2CC",
"o.	c #7C8ABC",
"p.	c #B0B8E4",
"q.	c #CCD2EC",
"r.	c #ACB2C8",
"s.	c #848AA8",
"t.	c #A65B6F",
"u.	c #BB0D11",
"v.	c #AC97C3",
"w.	c #7C86A8",
"x.	c #444A58",
"y.	c #7C7E84",
"z.	c #ABADB3",
"A.	c #B0899D",
"B.	c #9CA4C8",
"C.	c #8494C0",
"D.	c #A8B4E0",
"E.	c #8890B0",
"F.	c #484C58",
"G.	c #3C3E44",
"H.	c #444A5C",
"I.	c #585E78",
"J.	c #984659",
"K.	c #BB1016",
"L.	c #7F6C8D",
"M.	c #848AA0",
"N.	c #BBC1D3",
"O.	c #B55663",
"P.	c #94A0D0",
"Q.	c #7880A0",
"R.	c #5C6274",
"S.	c #B3B9C3",
"T.	c #8890A8",
"U.	c #994056",
"V.	c #B91216",
"W.	c #9D90A9",
"X.	c #B3B9D3",
"Y.	c #B9333A",
"Z.	c #8892C4",
"`.	c #94A0D4",
" +	c #ABADBB",
".+	c #9096B0",
"++	c #9F4055",
"@+	c #B71319",
"#+	c #7F779A",
"$+	c #98A0B4",
"%+	c #C3C5CB",
"&+	c #BE0A0C",
"*+	c #9A96BB",
"=+	c #8494C4",
"-+	c #8C96A8",
";+	c #7480A0",
">+	c #A53E52",
",+	c #B6171E",
"'+	c #8C85A4",
")+	c #D4A6A5",
"!+	c #B13948",
"~+	c #8894C4",
"{+	c #949ED0",
"]+	c #787EA0",
"^+	c #7C88B4",
"/+	c #A73C51",
"(+	c #B31820",
"_+	c #857D97",
":+	c #B91316",
"<+	c #BE0B0C",
"[+	c #935C7C",
"}+	c #7882A0",
"|+	c #5C6674",
"1+	c #9399AB",
"2+	c #8C96B4",
"3+	c #8493C3",
"4+	c #AB384B",
"5+	c #B51218",
"6+	c #C11A1B",
"7+	c #B3677A",
"8+	c #BC090B",
"9+	c #A86F89",
"0+	c #A4B0D8",
"a+	c #7C84A0",
"b+	c #9BA5BB",
"c+	c #8892B4",
"d+	c #94A1D1",
"e+	c #B82831",
"f+	c #BE0303",
"g+	c #BD0607",
"h+	c #9E7280",
"i+	c #AC4F61",
"j+	c #B63742",
"k+	c #7A718B",
"l+	c #545E74",
"m+	c #5C668B",
"n+	c #786789",
"o+	c #B4252E",
"p+	c #BE0304",
"q+	c #8C4959",
"r+	c #BBBDCB",
"s+	c #989CAC",
"t+	c #845862",
"u+	c #B40E11",
"v+	c #B90A0A",
"w+	c #AE2527",
"x+	c #BE2F31",
"y+	c #BE0606",
"z+	c #AF1518",
"A+	c #7B5A65",
"B+	c #707280",
"C+	c #909298",
"D+	c #ABADAB",
"                                                ",
"              . . . . . . . . . .               ",
"    + @ # $ % . . & * = - ; > . . , '           ",
"    ) ! ~ . { ] ^ / ( _ _ : < [ } . . | 1       ",
"    2 3 . 4 5 6 7 8 9 9 0 a b c d e f . g       ",
"    h . i j k l m n n o p q r s t u v w .       ",
"    . x y z A B C           D E F G H I J K     ",
"  . . L M N O P Q             R S T U V W . .   ",
"  . X / Y Z `  .Q .           ..t +.@.#.$.%..   ",
"  . &.*.=.-.;.>.,.. '.      ).!.~.{.].^./.. .   ",
". . (./ Y _.G :.<.[.}.> |.1.2.3.4.5.6.7.8.  .   ",
". . 9.0.a.b.u t Z c.d.e.f.g.h.].i.j.k.l.m.  . . ",
". . D n.o.+.p.q.r.s.s.t.. u.v.w.x.y.z.      . . ",
". . A.B.=.C.D.E.F.G.H.I.J.. K.L.M.N.        . . ",
". . O.n.Y C.P.Q.R.    S.T.U.. V.W.X.      . .   ",
"  . Y.n.M Z.`.Q.R.       +.+++. @+#+$+%+  . .   ",
"  . &+*+o.=+P.Q.R.      S.-+;+>+. ,+'+<.)+. .   ",
"  . . !+b.~+{+]+R.         +.+^+/+. (+_+:+.     ",
"    <+. [+=+`.}+|+          1+2+3+4+. 5+. 6+    ",
"    7+e.8+9+0+a+R.          b+c+F d+e+f+g+h+    ",
"    D i+e.. j+k+l+            m+n+o+. p+q+l+    ",
"    r+s+t+u+. v+w+            x+y+. z+A+B+C+D+  ",
"            . . . . . . . . . . .               ",
"                  . . . . . .                   "};
